<mxfile host="app.diagrams.net" modified="2022-03-29T23:56:07.503Z" agent="5.0 (Macintosh; Intel Mac OS X 10_15_7) AppleWebKit/605.1.15 (KHTML, like Gecko) Version/15.4 Safari/605.1.15" etag="2iQve8SaUrAdxaLm81lG" version="17.2.5" type="github">
  <diagram id="9_IlU9dXBKWWWHWyiEkQ" name="Page-1">
    <mxGraphModel dx="1699" dy="1078" grid="1" gridSize="10" guides="1" tooltips="1" connect="1" arrows="1" fold="1" page="1" pageScale="1" pageWidth="850" pageHeight="1100" math="0" shadow="0">
      <root>
        <mxCell id="0" />
        <mxCell id="1" parent="0" />
        <mxCell id="D-eX60lVFNXrvFSf2O7x-3" value="" style="edgeStyle=orthogonalEdgeStyle;rounded=0;orthogonalLoop=1;jettySize=auto;html=1;" parent="1" source="D-eX60lVFNXrvFSf2O7x-1" target="D-eX60lVFNXrvFSf2O7x-2" edge="1">
          <mxGeometry relative="1" as="geometry" />
        </mxCell>
        <mxCell id="D-eX60lVFNXrvFSf2O7x-1" value="GetNext" style="whiteSpace=wrap;html=1;aspect=fixed;" parent="1" vertex="1">
          <mxGeometry x="100" y="375" width="80" height="80" as="geometry" />
        </mxCell>
        <mxCell id="D-eX60lVFNXrvFSf2O7x-5" style="edgeStyle=orthogonalEdgeStyle;rounded=0;orthogonalLoop=1;jettySize=auto;html=1;entryX=0;entryY=0.5;entryDx=0;entryDy=0;" parent="1" source="D-eX60lVFNXrvFSf2O7x-2" target="D-eX60lVFNXrvFSf2O7x-4" edge="1">
          <mxGeometry relative="1" as="geometry">
            <Array as="points">
              <mxPoint x="300" y="295" />
            </Array>
          </mxGeometry>
        </mxCell>
        <mxCell id="D-eX60lVFNXrvFSf2O7x-15" value="Yes" style="edgeLabel;html=1;align=center;verticalAlign=middle;resizable=0;points=[];" parent="D-eX60lVFNXrvFSf2O7x-5" vertex="1" connectable="0">
          <mxGeometry relative="1" as="geometry">
            <mxPoint x="1" y="1" as="offset" />
          </mxGeometry>
        </mxCell>
        <mxCell id="D-eX60lVFNXrvFSf2O7x-7" style="edgeStyle=orthogonalEdgeStyle;rounded=0;orthogonalLoop=1;jettySize=auto;html=1;entryX=0;entryY=0.5;entryDx=0;entryDy=0;" parent="1" source="D-eX60lVFNXrvFSf2O7x-2" target="D-eX60lVFNXrvFSf2O7x-6" edge="1">
          <mxGeometry relative="1" as="geometry">
            <Array as="points">
              <mxPoint x="300" y="535" />
            </Array>
          </mxGeometry>
        </mxCell>
        <mxCell id="D-eX60lVFNXrvFSf2O7x-14" value="No" style="edgeLabel;html=1;align=center;verticalAlign=middle;resizable=0;points=[];" parent="D-eX60lVFNXrvFSf2O7x-7" vertex="1" connectable="0">
          <mxGeometry x="-0.3243" y="3" relative="1" as="geometry">
            <mxPoint as="offset" />
          </mxGeometry>
        </mxCell>
        <mxCell id="D-eX60lVFNXrvFSf2O7x-2" value="Predictive?" style="rhombus;whiteSpace=wrap;html=1;" parent="1" vertex="1">
          <mxGeometry x="260" y="375" width="80" height="80" as="geometry" />
        </mxCell>
        <mxCell id="D-eX60lVFNXrvFSf2O7x-11" style="edgeStyle=orthogonalEdgeStyle;rounded=0;orthogonalLoop=1;jettySize=auto;html=1;entryX=0;entryY=0.5;entryDx=0;entryDy=0;" parent="1" source="D-eX60lVFNXrvFSf2O7x-4" target="D-eX60lVFNXrvFSf2O7x-10" edge="1">
          <mxGeometry relative="1" as="geometry" />
        </mxCell>
        <mxCell id="D-eX60lVFNXrvFSf2O7x-4" value="ContactSpace&lt;br&gt;CSCallRequest" style="whiteSpace=wrap;html=1;aspect=fixed;" parent="1" vertex="1">
          <mxGeometry x="405" y="247.5" width="95" height="95" as="geometry" />
        </mxCell>
        <mxCell id="D-eX60lVFNXrvFSf2O7x-26" style="edgeStyle=orthogonalEdgeStyle;rounded=0;orthogonalLoop=1;jettySize=auto;html=1;entryX=0;entryY=0.5;entryDx=0;entryDy=0;" parent="1" source="D-eX60lVFNXrvFSf2O7x-6" target="D-eX60lVFNXrvFSf2O7x-8" edge="1">
          <mxGeometry relative="1" as="geometry">
            <mxPoint x="570" y="535" as="targetPoint" />
          </mxGeometry>
        </mxCell>
        <mxCell id="D-eX60lVFNXrvFSf2O7x-6" value="Twilio Studio" style="whiteSpace=wrap;html=1;aspect=fixed;" parent="1" vertex="1">
          <mxGeometry x="405" y="487.5" width="95" height="95" as="geometry" />
        </mxCell>
        <mxCell id="D-eX60lVFNXrvFSf2O7x-13" style="edgeStyle=orthogonalEdgeStyle;rounded=0;orthogonalLoop=1;jettySize=auto;html=1;entryX=0;entryY=0.75;entryDx=0;entryDy=0;" parent="1" source="D-eX60lVFNXrvFSf2O7x-8" target="D-eX60lVFNXrvFSf2O7x-1" edge="1">
          <mxGeometry relative="1" as="geometry">
            <Array as="points">
              <mxPoint x="635" y="630" />
              <mxPoint x="80" y="630" />
              <mxPoint x="80" y="435" />
            </Array>
          </mxGeometry>
        </mxCell>
        <mxCell id="D-eX60lVFNXrvFSf2O7x-21" style="edgeStyle=orthogonalEdgeStyle;rounded=0;orthogonalLoop=1;jettySize=auto;html=1;" parent="1" source="D-eX60lVFNXrvFSf2O7x-8" target="D-eX60lVFNXrvFSf2O7x-19" edge="1">
          <mxGeometry relative="1" as="geometry" />
        </mxCell>
        <mxCell id="D-eX60lVFNXrvFSf2O7x-8" value="Call Result Returned&lt;br&gt;&lt;i&gt;FlexCallOutcome&lt;/i&gt;" style="whiteSpace=wrap;html=1;aspect=fixed;" parent="1" vertex="1">
          <mxGeometry x="580" y="480" width="110" height="110" as="geometry" />
        </mxCell>
        <mxCell id="D-eX60lVFNXrvFSf2O7x-12" style="edgeStyle=orthogonalEdgeStyle;rounded=0;orthogonalLoop=1;jettySize=auto;html=1;entryX=0;entryY=0.25;entryDx=0;entryDy=0;" parent="1" source="D-eX60lVFNXrvFSf2O7x-10" target="D-eX60lVFNXrvFSf2O7x-1" edge="1">
          <mxGeometry relative="1" as="geometry">
            <Array as="points">
              <mxPoint x="635" y="200" />
              <mxPoint x="80" y="200" />
              <mxPoint x="80" y="395" />
            </Array>
          </mxGeometry>
        </mxCell>
        <mxCell id="D-eX60lVFNXrvFSf2O7x-20" style="edgeStyle=orthogonalEdgeStyle;rounded=0;orthogonalLoop=1;jettySize=auto;html=1;" parent="1" source="D-eX60lVFNXrvFSf2O7x-10" target="D-eX60lVFNXrvFSf2O7x-19" edge="1">
          <mxGeometry relative="1" as="geometry" />
        </mxCell>
        <mxCell id="D-eX60lVFNXrvFSf2O7x-10" value="Call Result Returned&lt;br&gt;&lt;i&gt;CSCallHistory&lt;/i&gt;" style="whiteSpace=wrap;html=1;aspect=fixed;" parent="1" vertex="1">
          <mxGeometry x="580" y="240" width="110" height="110" as="geometry" />
        </mxCell>
        <mxCell id="D-eX60lVFNXrvFSf2O7x-17" style="edgeStyle=orthogonalEdgeStyle;rounded=0;orthogonalLoop=1;jettySize=auto;html=1;entryX=0;entryY=0.75;entryDx=0;entryDy=0;" parent="1" source="D-eX60lVFNXrvFSf2O7x-16" target="D-eX60lVFNXrvFSf2O7x-8" edge="1">
          <mxGeometry relative="1" as="geometry" />
        </mxCell>
        <mxCell id="D-eX60lVFNXrvFSf2O7x-18" value="Hang up" style="edgeLabel;html=1;align=center;verticalAlign=middle;resizable=0;points=[];" parent="D-eX60lVFNXrvFSf2O7x-17" vertex="1" connectable="0">
          <mxGeometry x="-0.3224" relative="1" as="geometry">
            <mxPoint x="1" as="offset" />
          </mxGeometry>
        </mxCell>
        <mxCell id="D-eX60lVFNXrvFSf2O7x-16" value="Missing Result&lt;br&gt;X min" style="html=1;verticalLabelPosition=bottom;align=center;labelBackgroundColor=#ffffff;verticalAlign=top;strokeWidth=2;strokeColor=#0080F0;shadow=0;dashed=0;shape=mxgraph.ios7.icons.alarm_clock;" parent="1" vertex="1">
          <mxGeometry x="432" y="670" width="27" height="30" as="geometry" />
        </mxCell>
        <mxCell id="D-eX60lVFNXrvFSf2O7x-19" value="Disposition" style="whiteSpace=wrap;html=1;aspect=fixed;" parent="1" vertex="1">
          <mxGeometry x="740" y="370" width="80" height="80" as="geometry" />
        </mxCell>
      </root>
    </mxGraphModel>
  </diagram>
</mxfile>
